<svg width="44" height="44" viewBox="0 0 44 44" fill="none" xmlns="http://www.w3.org/2000/svg">
<path fill-rule="evenodd" clip-rule="evenodd" d="M39.7663 22.0453C39.776 21.9012 39.776 21.7566 39.7663 21.6125V6.73096C39.6994 3.50595 37.0624 0.943449 33.8698 1.00095H6.89657C3.70394 0.943449 1.06695 3.50595 1 6.73096V32.3717C1.06695 35.5967 3.70394 38.1592 6.89657 38.1017H19.363C19.4784 38.1117 19.5945 38.1117 19.7099 38.1017C24.0989 43.6967 32.1468 44.638 37.6852 40.2041C43.2237 35.7702 44.1554 27.6403 39.7663 22.0453ZM6.89657 33.9794C5.96447 34.0163 5.16673 33.31 5.08067 32.3717V6.73094C5.16673 5.79263 5.96447 5.08635 6.89657 5.12324H33.8698C34.8019 5.08635 35.5996 5.79263 35.6857 6.73094V18.562C31.7357 16.3787 26.9387 16.4615 23.0649 18.7799C19.1911 21.0983 16.8147 25.3086 16.8126 29.8571C16.8157 31.2589 17.043 32.6509 17.4859 33.9794H6.89657ZM20.8933 29.8571C20.8933 34.6951 24.7756 38.617 29.5647 38.617C34.3491 38.6057 38.2249 34.6904 38.2361 29.8571C38.2361 25.0191 34.3538 21.0972 29.5647 21.0972C24.7756 21.0972 20.8933 25.0191 20.8933 29.8571ZM29.5647 13.3679H11.2017C10.0748 13.3679 9.16134 12.445 9.16134 11.3067C9.16134 10.1684 10.0748 9.24554 11.2017 9.24554H29.5647C30.6915 9.24554 31.605 10.1684 31.605 11.3067C31.605 12.445 30.6915 13.3679 29.5647 13.3679ZM33.6572 31.9183C33.6572 31.3687 33.4399 30.8419 33.0537 30.4548L31.605 29.012V25.7348C31.605 24.5965 30.6915 23.6736 29.5647 23.6736C28.4378 23.6736 27.5243 24.5965 27.5243 25.7348V29.8571C27.5212 30.405 27.7341 30.9315 28.116 31.3205L30.1564 33.3817C30.5395 33.7719 31.061 33.9914 31.605 33.9914C32.149 33.9914 32.6705 33.7719 33.0537 33.3817C33.4399 32.9947 33.6572 32.4678 33.6572 31.9183Z" fill="#F76626"/>
<path d="M39.7663 21.6125H39.0163V21.6377L39.018 21.6628L39.7663 21.6125ZM39.7663 22.0453L39.018 21.995L38.9988 22.282L39.1763 22.5082L39.7663 22.0453ZM39.7663 6.73096H40.5163V6.72317L40.5162 6.71539L39.7663 6.73096ZM33.8698 1.00095V1.75107L33.8833 1.75083L33.8698 1.00095ZM6.89657 1.00095L6.88306 1.75095H6.89657V1.00095ZM1 6.73096L0.250162 6.71539L0.25 6.72317V6.73096H1ZM1 32.3717H0.25V32.3795L0.250162 32.3873L1 32.3717ZM6.89657 38.1017V37.3516L6.88306 37.3518L6.89657 38.1017ZM19.363 38.1017L19.4274 37.3545L19.3953 37.3517H19.363V38.1017ZM19.7099 38.1017L20.3 37.6388L20.0496 37.3197L19.6455 37.3545L19.7099 38.1017ZM37.6852 40.2041L38.1539 40.7896L37.6852 40.2041ZM5.08067 32.3717H4.33067V32.406L4.3338 32.4402L5.08067 32.3717ZM6.89657 33.9794V33.2294H6.88173L6.86691 33.23L6.89657 33.9794ZM5.08067 6.73094L4.3338 6.66244L4.33067 6.69662V6.73094H5.08067ZM6.89657 5.12324L6.86691 5.87265L6.88173 5.87324H6.89657V5.12324ZM33.8698 5.12324V5.87324H33.8846L33.8994 5.87265L33.8698 5.12324ZM35.6857 6.73094H36.4357V6.69662L36.4325 6.66244L35.6857 6.73094ZM35.6857 18.562L35.3229 19.2184L36.4357 19.8335V18.562H35.6857ZM23.0649 18.7799L22.6798 18.1363L23.0649 18.7799ZM16.8126 29.8571L16.0626 29.8567L16.0626 29.8587L16.8126 29.8571ZM17.4859 33.9794V34.7294H18.5265L18.1974 33.7422L17.4859 33.9794ZM29.5647 38.617V39.367L29.5665 39.367L29.5647 38.617ZM38.2361 29.8571L38.9861 29.8588V29.8571H38.2361ZM33.0537 30.4548L33.5845 29.925L33.5829 29.9234L33.0537 30.4548ZM31.605 29.012H30.855V29.3236L31.0758 29.5434L31.605 29.012ZM27.5243 29.8571L28.2743 29.8614V29.8571H27.5243ZM28.116 31.3205L27.5809 31.846L27.583 31.8482L28.116 31.3205ZM30.1564 33.3817L30.6916 32.8562L30.6894 32.854L30.1564 33.3817ZM33.0537 33.3817L32.5228 32.8518L32.5185 32.8562L33.0537 33.3817ZM39.018 21.6628C39.0255 21.7734 39.0255 21.8844 39.018 21.995L40.5147 22.0956C40.5266 21.918 40.5266 21.7398 40.5147 21.5622L39.018 21.6628ZM39.0163 6.73096V21.6125H40.5163V6.73096H39.0163ZM33.8833 1.75083C36.6554 1.7009 38.958 3.92768 39.0165 6.74652L40.5162 6.71539C40.4408 3.08423 37.4694 0.185998 33.8563 0.251071L33.8833 1.75083ZM6.89657 1.75095H33.8698V0.250949H6.89657V1.75095ZM1.74984 6.74652C1.80836 3.92768 4.1109 1.7009 6.88306 1.75083L6.91007 0.251071C3.29698 0.185998 0.325547 3.08423 0.250162 6.71539L1.74984 6.74652ZM1.75 32.3717V6.73096H0.25V32.3717H1.75ZM6.88306 37.3518C4.1109 37.4018 1.80836 35.175 1.74984 32.3561L0.250162 32.3873C0.325547 36.0184 3.29698 38.9167 6.91007 38.8516L6.88306 37.3518ZM19.363 37.3517H6.89657V38.8517H19.363V37.3517ZM19.6455 37.3545C19.5729 37.3607 19.5 37.3607 19.4274 37.3545L19.2986 38.849C19.4569 38.8626 19.616 38.8626 19.7743 38.849L19.6455 37.3545ZM37.2165 39.6186C32.005 43.7907 24.4326 42.9069 20.3 37.6388L19.1198 38.5646C23.7653 44.4865 32.2886 45.4852 38.1539 40.7896L37.2165 39.6186ZM39.1763 22.5082C43.3124 27.7808 42.4326 35.4428 37.2165 39.6186L38.1539 40.7896C44.0147 36.0977 44.9984 27.4997 40.3564 21.5824L39.1763 22.5082ZM4.3338 32.4402C4.45571 33.7694 5.58879 34.7817 6.92623 34.7288L6.86691 33.23C6.34015 33.2508 5.87775 32.8507 5.82753 32.3032L4.3338 32.4402ZM4.33067 6.73094V32.3717H5.83067V6.73094H4.33067ZM6.92623 4.37382C5.5888 4.32089 4.45571 5.33327 4.3338 6.66244L5.82753 6.79944C5.87774 6.25198 6.34015 5.8518 6.86691 5.87265L6.92623 4.37382ZM33.8698 4.37324H6.89657V5.87324H33.8698V4.37324ZM36.4325 6.66244C36.3106 5.33327 35.1776 4.32089 33.8401 4.37382L33.8994 5.87265C34.4262 5.8518 34.8886 6.25198 34.9388 6.79944L36.4325 6.66244ZM36.4357 18.562V6.73094H34.9357V18.562H36.4357ZM23.4501 19.4234C27.0947 17.2422 31.6068 17.1644 35.3229 19.2184L36.0485 17.9056C31.8646 15.593 26.7828 15.6808 22.6798 18.1363L23.4501 19.4234ZM17.5626 29.8574C17.5646 25.5701 19.8046 21.6052 23.4501 19.4234L22.6798 18.1363C18.5777 20.5914 16.0648 25.047 16.0626 29.8567L17.5626 29.8574ZM18.1974 33.7422C17.7799 32.4898 17.5655 31.1772 17.5626 29.8554L16.0626 29.8587C16.0658 31.3405 16.3062 32.8121 16.7744 34.2166L18.1974 33.7422ZM6.89657 34.7294H17.4859V33.2294H6.89657V34.7294ZM29.5647 37.867C25.197 37.867 21.6433 34.288 21.6433 29.8571H20.1433C20.1433 35.1021 24.3542 39.367 29.5647 39.367V37.867ZM37.4861 29.8554C37.4758 34.2829 33.9274 37.8567 29.5629 37.867L29.5665 39.367C34.7709 39.3547 38.9739 35.0978 38.9861 29.8588L37.4861 29.8554ZM29.5647 21.8472C33.9324 21.8472 37.4861 25.4262 37.4861 29.8571H38.9861C38.9861 24.6121 34.7752 20.3472 29.5647 20.3472V21.8472ZM21.6433 29.8571C21.6433 25.4262 25.197 21.8472 29.5647 21.8472V20.3472C24.3542 20.3472 20.1433 24.6121 20.1433 29.8571H21.6433ZM11.2017 14.1179H29.5647V12.6179H11.2017V14.1179ZM8.41134 11.3067C8.41134 12.8521 9.65345 14.1179 11.2017 14.1179V12.6179C10.4962 12.6179 9.91134 12.038 9.91134 11.3067H8.41134ZM11.2017 8.49554C9.65345 8.49554 8.41134 9.76134 8.41134 11.3067H9.91134C9.91134 10.5754 10.4962 9.99554 11.2017 9.99554V8.49554ZM29.5647 8.49554H11.2017V9.99554H29.5647V8.49554ZM32.355 11.3067C32.355 9.76134 31.1129 8.49554 29.5647 8.49554V9.99554C30.2702 9.99554 30.855 10.5754 30.855 11.3067H32.355ZM29.5647 14.1179C31.1129 14.1179 32.355 12.8521 32.355 11.3067H30.855C30.855 12.038 30.2702 12.6179 29.5647 12.6179V14.1179ZM32.5228 30.9847C32.7679 31.2303 32.9072 31.5662 32.9072 31.9183H34.4072C34.4072 31.1712 34.1119 30.4535 33.5845 29.925L32.5228 30.9847ZM31.0758 29.5434L32.5244 30.9862L33.5829 29.9234L32.1343 28.4806L31.0758 29.5434ZM30.855 25.7348V29.012H32.355V25.7348H30.855ZM29.5647 24.4236C30.2702 24.4236 30.855 25.0035 30.855 25.7348H32.355C32.355 24.1894 31.1129 22.9236 29.5647 22.9236V24.4236ZM28.2743 25.7348C28.2743 25.0035 28.8592 24.4236 29.5647 24.4236V22.9236C28.0165 22.9236 26.7743 24.1894 26.7743 25.7348H28.2743ZM28.2743 29.8571V25.7348H26.7743V29.8571H28.2743ZM28.6512 30.7951C28.4088 30.5482 28.2723 30.2124 28.2743 29.8614L26.7744 29.8528C26.7701 30.5976 27.0594 31.3149 27.5809 31.846L28.6512 30.7951ZM30.6894 32.854L28.6491 30.7929L27.583 31.8482L29.6234 33.9093L30.6894 32.854ZM31.605 33.2414C31.2635 33.2414 30.9345 33.1036 30.6916 32.8562L29.6212 33.9071C30.1445 34.4401 30.8585 34.7414 31.605 34.7414V33.2414ZM32.5185 32.8562C32.2756 33.1036 31.9466 33.2414 31.605 33.2414V34.7414C32.3515 34.7414 33.0655 34.4401 33.5888 33.9071L32.5185 32.8562ZM32.9072 31.9183C32.9072 32.2703 32.7679 32.6063 32.5228 32.8519L33.5845 33.9115C34.1119 33.3831 34.4072 32.6654 34.4072 31.9183H32.9072Z" fill="white"/>
</svg>
