<svg width="38" height="42" viewBox="0 0 38 42" fill="none" xmlns="http://www.w3.org/2000/svg">
<path fill-rule="evenodd" clip-rule="evenodd" d="M24.8463 2.93871C24.8231 3.69731 25.2312 4.40372 25.9 4.76247L31.9 8.76247C32.2221 8.98806 32.6068 9.10697 33 9.10247C33.8771 9.0957 34.6475 8.51821 34.8999 7.67819C35.1524 6.83817 34.8281 5.93167 34.1 5.44247L28.1 1.44247C27.5089 0.966375 26.6993 0.86585 26.0098 1.18294C25.3202 1.50004 24.8696 2.18011 24.8463 2.93871ZM19 5.10247C9.05887 5.10247 1 13.1613 1 23.1025C1 33.0436 9.05887 41.1025 19 41.1025C28.9411 41.1025 37 33.0436 37 23.1025C37 13.1613 28.9411 5.10247 19 5.10247ZM19 37.1025C11.268 37.1025 5 30.8345 5 23.1025C5 15.3705 11.268 9.10247 19 9.10247C26.732 9.10247 33 15.3705 33 23.1025C33 30.8345 26.732 37.1025 19 37.1025ZM3.34 8.20247C2.73751 7.28471 2.98745 6.05284 3.9 5.44247L9.9 1.44247C10.4911 0.966375 11.3007 0.86585 11.9902 1.18294C12.6798 1.50004 13.1304 2.18011 13.1537 2.93871C13.1769 3.69731 12.7688 4.40372 12.1 4.76247L6.1 8.76247C5.77791 8.98806 5.3932 9.10697 5 9.10247C4.33096 9.09901 3.70797 8.76124 3.34 8.20247ZM25.0116 27.1025C25.0116 26.5692 24.7986 26.058 24.42 25.6825L21 22.2825V15.1025C21 13.9979 20.1046 13.1025 19 13.1025C17.8954 13.1025 17 13.9979 17 15.1025V23.1025C16.9969 23.6341 17.2056 24.145 17.58 24.5225L21.58 28.5225C21.9555 28.9011 22.4667 29.1141 23 29.1141C23.5333 29.1141 24.0445 28.9011 24.42 28.5225C24.7986 28.1469 25.0116 27.6357 25.0116 27.1025Z" fill="#F76626"/>
<path d="M25.9 4.76247L26.316 4.13843L26.2862 4.11852L26.2545 4.10155L25.9 4.76247ZM24.8463 2.93871L24.0967 2.91571L24.8463 2.93871ZM31.9 8.76247L32.3303 8.14816L32.3232 8.14322L32.316 8.13843L31.9 8.76247ZM33 9.10247L32.9942 8.35249L32.9914 8.35252L33 9.10247ZM34.1 5.44247L34.5183 4.81994L34.516 4.81843L34.1 5.44247ZM28.1 1.44247L27.6295 2.02655L27.6558 2.04776L27.684 2.06651L28.1 1.44247ZM26.0098 1.18294L25.6964 0.50154V0.50154L26.0098 1.18294ZM3.9 5.44247L3.48397 4.81843L3.48303 4.81907L3.9 5.44247ZM3.34 8.20247L2.71303 8.61407L2.71362 8.61496L3.34 8.20247ZM9.9 1.44247L10.316 2.06651L10.3442 2.04776L10.3705 2.02655L9.9 1.44247ZM11.9902 1.18294L12.3036 0.50154V0.50154L11.9902 1.18294ZM13.1537 2.93871L13.9033 2.91571V2.91571L13.1537 2.93871ZM12.1 4.76247L11.7455 4.10155L11.7138 4.11852L11.684 4.13843L12.1 4.76247ZM6.1 8.76247L5.68398 8.13843L5.6768 8.14322L5.66974 8.14816L6.1 8.76247ZM5 9.10247L5.00857 8.35251L5.00388 8.35248L5 9.10247ZM24.42 25.6825L23.8912 26.2144L23.8918 26.215L24.42 25.6825ZM21 22.2825H20.25V22.5944L20.4712 22.8144L21 22.2825ZM17 23.1025L17.75 23.1068V23.1025H17ZM17.58 24.5225L17.0475 25.0506L17.0497 25.0528L17.58 24.5225ZM21.58 28.5225L22.1125 27.9943L22.1103 27.9921L21.58 28.5225ZM24.42 28.5225L23.8918 27.99L23.8875 27.9943L24.42 28.5225ZM26.2545 4.10155C25.8365 3.87733 25.5814 3.43582 25.596 2.9617L24.0967 2.91571C24.0647 3.95879 24.6259 4.9301 25.5455 5.42339L26.2545 4.10155ZM32.316 8.13843L26.316 4.13843L25.484 5.38651L31.484 9.38651L32.316 8.13843ZM32.9914 8.35252C32.7551 8.35522 32.5238 8.28375 32.3303 8.14816L31.4697 9.37678C31.9203 9.69236 32.4585 9.85871 33.0086 9.85242L32.9914 8.35252ZM34.1817 7.46232C34.0239 7.98733 33.5424 8.34826 32.9942 8.35249L33.0058 9.85245C34.2118 9.84314 35.271 9.04909 35.6182 7.89406L34.1817 7.46232ZM33.6817 6.06499C34.1367 6.37074 34.3395 6.9373 34.1817 7.46232L35.6182 7.89406C35.9653 6.73903 35.5194 5.4926 34.5183 4.81995L33.6817 6.06499ZM27.684 2.06651L33.684 6.06651L34.516 4.81843L28.516 0.818434L27.684 2.06651ZM26.3231 1.86435C26.7541 1.66616 27.2601 1.72899 27.6295 2.02655L28.5705 0.858391C27.7578 0.203757 26.6446 0.0655366 25.6964 0.50154L26.3231 1.86435ZM25.596 2.9617C25.6105 2.48757 25.8922 2.06253 26.3231 1.86435L25.6964 0.50154C24.7483 0.937544 24.1287 1.87264 24.0967 2.91571L25.596 2.9617ZM1.75 23.1025C1.75 13.5756 9.47309 5.85247 19 5.85247V4.35247C8.64466 4.35247 0.25 12.7471 0.25 23.1025H1.75ZM19 40.3525C9.47309 40.3525 1.75 32.6294 1.75 23.1025H0.25C0.25 33.4578 8.64466 41.8525 19 41.8525V40.3525ZM36.25 23.1025C36.25 32.6294 28.5269 40.3525 19 40.3525V41.8525C29.3553 41.8525 37.75 33.4578 37.75 23.1025H36.25ZM19 5.85247C28.5269 5.85247 36.25 13.5756 36.25 23.1025H37.75C37.75 12.7471 29.3553 4.35247 19 4.35247V5.85247ZM4.25 23.1025C4.25 31.2487 10.8538 37.8525 19 37.8525V36.3525C11.6822 36.3525 5.75 30.4202 5.75 23.1025H4.25ZM19 8.35247C10.8538 8.35247 4.25 14.9563 4.25 23.1025H5.75C5.75 15.7847 11.6822 9.85247 19 9.85247V8.35247ZM33.75 23.1025C33.75 14.9563 27.1462 8.35247 19 8.35247V9.85247C26.3178 9.85247 32.25 15.7847 32.25 23.1025H33.75ZM19 37.8525C27.1462 37.8525 33.75 31.2487 33.75 23.1025H32.25C32.25 30.4202 26.3178 36.3525 19 36.3525V37.8525ZM3.48303 4.81907C2.22827 5.65832 1.8846 7.35214 2.71303 8.61407L3.96697 7.79088C3.59041 7.21728 3.74663 6.44736 4.31697 6.06588L3.48303 4.81907ZM9.48398 0.818434L3.48397 4.81843L4.31603 6.06651L10.316 2.06651L9.48398 0.818434ZM12.3036 0.50154C11.3554 0.0655366 10.2422 0.203757 9.42952 0.858391L10.3705 2.02655C10.7399 1.72899 11.2459 1.66616 11.6769 1.86435L12.3036 0.50154ZM13.9033 2.91571C13.8713 1.87264 13.2517 0.937544 12.3036 0.50154L11.6769 1.86435C12.1078 2.06253 12.3895 2.48757 12.404 2.9617L13.9033 2.91571ZM12.4545 5.42339C13.3741 4.9301 13.9353 3.95879 13.9033 2.91571L12.404 2.9617C12.4186 3.43583 12.1635 3.87733 11.7455 4.10155L12.4545 5.42339ZM6.51603 9.38651L12.516 5.38651L11.684 4.13843L5.68398 8.13843L6.51603 9.38651ZM4.99143 9.85242C5.54149 9.85871 6.07968 9.69236 6.53026 9.37679L5.66974 8.14816C5.47615 8.28375 5.24491 8.35522 5.00857 8.35252L4.99143 9.85242ZM2.71362 8.61496C3.21957 9.38327 4.07619 9.8477 4.99612 9.85246L5.00388 8.35248C4.58573 8.35032 4.19636 8.13921 3.96638 7.78998L2.71362 8.61496ZM23.8918 26.215C24.1285 26.4497 24.2616 26.7692 24.2616 27.1025H25.7616C25.7616 26.3692 25.4688 25.6663 24.9482 25.15L23.8918 26.215ZM20.4712 22.8144L23.8912 26.2144L24.9488 25.1506L21.5288 21.7506L20.4712 22.8144ZM20.25 15.1025V22.2825H21.75V15.1025H20.25ZM19 13.8525C19.6904 13.8525 20.25 14.4121 20.25 15.1025H21.75C21.75 13.5837 20.5188 12.3525 19 12.3525V13.8525ZM17.75 15.1025C17.75 14.4121 18.3096 13.8525 19 13.8525V12.3525C17.4812 12.3525 16.25 13.5837 16.25 15.1025H17.75ZM17.75 23.1025V15.1025H16.25V23.1025H17.75ZM18.1125 23.9943C17.8785 23.7584 17.7481 23.4391 17.75 23.1068L16.25 23.0981C16.2458 23.8291 16.5328 24.5317 17.0475 25.0506L18.1125 23.9943ZM22.1103 27.9921L18.1103 23.9921L17.0497 25.0528L21.0497 29.0528L22.1103 27.9921ZM23 28.3641C22.6667 28.3641 22.3472 28.231 22.1125 27.9943L21.0475 29.0506C21.5639 29.5712 22.2667 29.8641 23 29.8641V28.3641ZM23.8875 27.9943C23.6528 28.231 23.3333 28.3641 23 28.3641V29.8641C23.7333 29.8641 24.4361 29.5712 24.9525 29.0506L23.8875 27.9943ZM24.2616 27.1025C24.2616 27.4358 24.1285 27.7553 23.8918 27.99L24.9482 29.055C25.4688 28.5386 25.7616 27.8357 25.7616 27.1025H24.2616Z" fill="#FDFDFD"/>
</svg>
