<svg width="828" height="155" viewBox="0 0 828 155" fill="none" xmlns="http://www.w3.org/2000/svg">
<path d="M744.129 69.1458C740.678 69.1458 737.183 70.7715 734.831 74.5503L687.946 150.433H709.729C724.478 150.433 737.513 140.745 741.909 126.53L755.098 83.9972C757.713 75.5389 750.987 69.1677 744.129 69.1677" fill="#FAA37D"/>
<path d="M748.233 106.122C741.419 128.091 757.641 150.434 780.413 150.434H827.891L795.602 45.6172C791.227 31.4248 771.379 31.4028 766.983 45.5952L748.211 106.122H748.233Z" fill="#F76626"/>
<path d="M67.4534 123.125C64.1595 124.524 60.4282 125.223 56.2306 125.223C52.033 125.223 47.8937 124.203 44.2791 122.193C40.6353 120.153 37.8077 117.327 35.7672 113.685C33.7267 110.043 32.7356 105.848 32.7356 101.099C32.7356 96.3499 33.7559 92.3875 35.7672 88.833C37.8077 85.2785 40.6061 82.4815 44.1625 80.4421C47.7188 78.4026 51.7415 77.412 56.2306 77.412C60.2825 77.412 63.8971 78.0238 67.0453 79.3058C70.1935 80.5586 72.9628 82.5107 75.324 85.1911L96.108 64.2137C90.9193 58.9111 85.031 54.8904 78.3847 52.1517C71.7385 49.413 64.3635 48.0728 56.2306 48.0728C45.5908 48.0728 36.0004 50.3744 27.4886 55.0069C18.9476 59.6103 12.2431 65.9618 7.34583 74.0032C2.44861 82.0445 0 91.1638 0 101.361C0 111.559 2.41946 120.532 7.22923 128.632C12.0682 136.731 18.7435 143.112 27.2845 147.715C35.8255 152.319 45.4159 154.65 56.0266 154.65C64.4218 154.65 71.9425 153.222 78.5888 150.338C85.235 147.482 91.2982 143.229 96.7493 137.635L75.9653 117.065C73.5749 119.716 70.7474 121.756 67.4534 123.154V123.125Z" fill="#F76626"/>
<path d="M181.31 58.853C178.541 56.2309 175.393 53.9875 171.749 52.2393C166.211 49.588 160.031 48.2478 153.181 48.2478C143.794 48.2478 135.457 50.5204 128.111 55.0655C120.766 59.6106 114.965 65.9038 110.68 73.9451C106.424 81.9865 104.267 91.1058 104.267 101.303C104.267 111.5 106.395 120.562 110.68 128.457C114.936 136.353 120.795 142.646 128.199 147.337C135.603 152.028 143.94 154.358 153.181 154.358C160.177 154.358 166.444 153.018 171.953 150.367C175.51 148.648 178.599 146.463 181.281 143.899V152.232H212.967V50.3455H181.281V58.853H181.31ZM159.914 125.252C155.571 125.252 151.694 124.233 148.254 122.222C144.814 120.183 142.103 117.357 140.063 113.715C138.022 110.073 137.031 105.965 137.031 101.332C137.031 96.6998 138.052 92.5917 140.063 88.9498C142.103 85.3079 144.814 82.4818 148.254 80.4423C151.665 78.4028 155.571 77.4122 159.914 77.4122C164.258 77.4122 168.368 78.432 171.866 80.4423C175.364 82.4818 178.016 85.2787 179.853 88.8332C181.66 92.3877 182.593 96.4958 182.593 101.099C182.593 108.237 180.523 114.035 176.413 118.522C172.274 123.009 166.794 125.223 159.943 125.223L159.914 125.252Z" fill="#F76626"/>
<path d="M267.772 0H235.444V152.29H267.772V0Z" fill="#F76626"/>
<path d="M322.988 50.3447H290.66V152.289H322.988V50.3447Z" fill="#F76626"/>
<path d="M415.303 56.6099C413.029 54.8617 410.522 53.3758 407.753 52.123C402.011 49.53 395.714 48.248 388.864 48.248C379.215 48.248 370.616 50.5497 363.037 55.1822C355.458 59.8147 349.599 66.0788 345.401 74.0619C341.203 82.045 339.104 91.1352 339.104 101.333C339.104 111.53 341.203 120.62 345.401 128.603C349.599 136.557 355.429 142.85 362.92 147.483C370.412 152.086 379.04 154.417 388.835 154.417C395.685 154.417 401.981 152.989 407.724 150.105C410.756 148.59 413.467 146.784 415.915 144.744V152.319H447.601V0H415.274V56.6099H415.303ZM406.5 122.193C403.147 124.233 399.154 125.223 394.548 125.223C390.205 125.223 386.299 124.204 382.801 122.193C379.303 120.154 376.621 117.328 374.726 113.686C372.831 110.044 371.898 105.936 371.898 101.303C371.898 96.6709 372.919 92.5919 374.93 89.0374C376.971 85.4829 379.652 82.6277 383.005 80.5299C386.357 78.4322 390.292 77.3833 394.752 77.3833C399.212 77.3833 403.147 78.4031 406.5 80.4134C409.852 82.4529 412.475 85.2498 414.37 88.8043C416.265 92.3588 417.198 96.4669 417.198 101.07C417.198 105.674 416.265 110.015 414.37 113.657C412.475 117.299 409.852 120.125 406.5 122.164V122.193Z" fill="#F76626"/>
<path d="M530.976 108.877C530.976 114.209 529.606 118.405 526.895 121.464C524.155 124.552 520.424 126.067 515.672 126.067C512.466 126.067 509.667 125.368 507.277 123.97C504.887 122.571 503.079 120.59 501.826 117.997C500.572 115.404 499.931 112.374 499.931 108.877V50.3447H467.604V109.285C467.604 118.084 469.644 125.893 473.696 132.681C477.748 139.47 483.461 144.83 490.807 148.735C498.153 152.639 506.432 154.62 515.672 154.62C524.913 154.62 533.512 152.697 540.654 148.851C547.796 145.005 553.363 139.703 557.328 132.914C561.321 126.126 563.303 118.259 563.303 109.315V50.3447H530.976V108.877Z" fill="#F76626"/>
<path d="M649.529 97.0208C645.739 94.5734 641.775 92.6796 637.577 91.3394C633.38 89.9992 629.415 88.8629 625.713 87.8723C622.011 86.8817 618.921 85.7746 616.472 84.5217C614.024 83.2689 612.8 81.5791 612.8 79.4813C612.8 77.675 613.703 76.1891 615.54 75.0819C617.347 73.9748 620.087 73.3921 623.731 73.3921C627.375 73.3921 631.397 74.2079 635.391 75.8103C639.384 77.4127 642.97 80.1223 646.206 83.8808L664.454 65.2051C659.964 59.3197 654.018 54.8912 646.614 51.8902C639.21 48.8893 631.222 47.3743 622.681 47.3743C614.14 47.3743 606.795 48.7728 600.644 51.5697C594.493 54.3667 589.742 58.1835 586.36 62.9908C583.008 67.7981 581.317 73.5086 581.317 80.0932C581.317 86.6778 582.513 91.4851 584.874 95.4183C587.235 99.3516 590.325 102.411 594.114 104.654C597.904 106.898 601.868 108.675 606.066 110.015C610.263 111.355 614.286 112.55 618.134 113.57C621.982 114.589 625.101 115.726 627.462 116.92C629.852 118.115 631.018 119.95 631.018 122.485C631.018 124.583 629.998 126.185 627.987 127.292C625.946 128.399 623.177 128.982 619.708 128.982C614.111 128.982 609.039 127.962 604.492 125.952C599.944 123.913 595.922 121.087 592.424 117.445L573.942 135.916C577.586 139.675 581.842 143.025 586.739 145.881C591.637 148.736 597.029 150.979 602.888 152.582C608.777 154.184 614.723 155 620.728 155C633.467 155 643.582 152.028 651.045 146.085C658.536 140.141 662.267 132.216 662.267 122.281C662.267 115.842 661.072 110.627 658.711 106.635C656.321 102.644 653.26 99.439 649.47 96.9916L649.529 97.0208Z" fill="#F76626"/>
</svg>
