<svg width="47" height="47" viewBox="0 0 47 47" fill="none" xmlns="http://www.w3.org/2000/svg">
<path fill-rule="evenodd" clip-rule="evenodd" d="M24.1242 1H38.3956C42.228 1 45.3347 4.10674 45.3347 7.9391V22.2105C45.3331 24.0502 44.6009 25.814 43.2992 27.1141L27.108 43.3054C24.3988 46.0112 20.01 46.0112 17.3008 43.3054L3.02936 29.0339C0.323546 26.3248 0.323546 21.9359 3.02936 19.2267L19.2206 3.03547C20.5207 1.73376 22.2845 1.00162 24.1242 1ZM40.0379 23.8528C40.4708 23.4163 40.7122 22.8253 40.7087 22.2105V7.93911C40.7087 6.66165 39.6731 5.62607 38.3956 5.62607H24.1242C23.5118 5.63459 22.9252 5.87418 22.482 6.29685L6.29074 22.4881C5.85286 22.9224 5.60655 23.5136 5.60655 24.1303C5.60655 24.7471 5.85286 25.3383 6.29074 25.7726L20.5621 40.044C20.9965 40.4819 21.5877 40.7282 22.2044 40.7282C22.8211 40.7282 23.4123 40.4819 23.8467 40.044L40.0379 23.8528ZM31.4565 7.93911C27.6242 7.93911 24.5174 11.0459 24.5174 14.8782C24.5174 18.7106 27.6242 21.8173 31.4565 21.8173C35.2889 21.8173 38.3956 18.7106 38.3956 14.8782C38.3956 11.0459 35.2889 7.93911 31.4565 7.93911ZM29.1435 14.8782C29.1435 16.1556 30.1791 17.1912 31.4565 17.1912C32.734 17.1912 33.7696 16.1556 33.7696 14.8782C33.7696 13.6007 32.734 12.5652 31.4565 12.5652C30.1791 12.5652 29.1435 13.6007 29.1435 14.8782Z" fill="#F76626"/>
<path d="M24.1242 1V-3.57628e-07L24.1233 4.17233e-07L24.1242 1ZM45.3347 22.2105L46.3347 22.2114V22.2105H45.3347ZM43.2992 27.1141L42.5926 26.4066L42.5921 26.407L43.2992 27.1141ZM27.108 43.3054L27.8147 44.0129L27.8151 44.0125L27.108 43.3054ZM17.3008 43.3054L16.5937 44.0125L16.5941 44.0129L17.3008 43.3054ZM3.02936 29.0339L2.32182 29.7406L2.32226 29.7411L3.02936 29.0339ZM3.02936 19.2267L2.32225 18.5196L2.32182 18.52L3.02936 19.2267ZM19.2206 3.03547L19.9277 3.74257L19.9281 3.74213L19.2206 3.03547ZM40.7087 22.2105H39.7086L39.7087 22.2163L40.7087 22.2105ZM40.0379 23.8528L40.745 24.5599L40.7479 24.557L40.0379 23.8528ZM24.1242 5.62607V4.62598L24.1103 4.62617L24.1242 5.62607ZM22.482 6.29685L21.7919 5.57314L21.7833 5.58134L21.7749 5.58975L22.482 6.29685ZM6.29074 22.4881L6.99495 23.1981L6.99785 23.1952L6.29074 22.4881ZM6.29074 25.7726L6.99785 25.0655L6.99494 25.0626L6.29074 25.7726ZM20.5621 40.044L21.2722 39.3398L21.2693 39.3369L20.5621 40.044ZM23.8467 40.044L23.1395 39.3369L23.1367 39.3398L23.8467 40.044ZM38.3956 0H24.1242V2H38.3956V0ZM46.3347 7.9391C46.3347 3.55445 42.7803 0 38.3956 0V2C41.6757 2 44.3347 4.65902 44.3347 7.9391H46.3347ZM46.3347 22.2105V7.9391H44.3347V22.2105H46.3347ZM44.0059 27.8217C45.4952 26.3342 46.3329 24.3163 46.3347 22.2114L44.3347 22.2096C44.3333 23.7842 43.7067 25.2939 42.5926 26.4066L44.0059 27.8217ZM27.8151 44.0125L44.0063 27.8212L42.5921 26.407L26.4009 42.5982L27.8151 44.0125ZM16.5941 44.0129C19.6937 47.1087 24.7151 47.1087 27.8147 44.0129L26.4014 42.5978C24.0826 44.9137 20.3262 44.9137 18.0074 42.5978L16.5941 44.0129ZM2.32226 29.7411L16.5937 44.0125L18.0079 42.5982L3.73647 28.3268L2.32226 29.7411ZM2.32182 18.52C-0.773938 21.6196 -0.773938 26.641 2.32182 29.7406L3.73691 28.3273C1.42103 26.0085 1.42103 22.2521 3.73691 19.9334L2.32182 18.52ZM18.5135 2.32836L2.32226 18.5196L3.73647 19.9338L19.9277 3.74257L18.5135 2.32836ZM24.1233 4.17233e-07C22.0185 0.00185341 20.0005 0.839507 18.513 2.3288L19.9281 3.74213C21.0409 2.62802 22.5505 2.00139 24.1251 2L24.1233 4.17233e-07ZM39.7087 22.2163C39.7107 22.5653 39.5737 22.9008 39.3279 23.1485L40.7479 24.557C41.368 23.9318 41.7137 23.0853 41.7086 22.2047L39.7087 22.2163ZM39.7087 7.93911V22.2105H41.7087V7.93911H39.7087ZM38.3956 6.62607C39.1208 6.62607 39.7087 7.21394 39.7087 7.93911H41.7087C41.7087 6.10937 40.2254 4.62607 38.3956 4.62607V6.62607ZM24.1242 6.62607H38.3956V4.62607H24.1242V6.62607ZM23.1721 7.02057C23.4328 6.77193 23.7779 6.63099 24.1381 6.62598L24.1103 4.62617C23.2457 4.6382 22.4176 4.97644 21.7919 5.57314L23.1721 7.02057ZM6.99785 23.1952L23.1891 7.00396L21.7749 5.58975L5.58363 21.781L6.99785 23.1952ZM6.60655 24.1303C6.60655 23.7802 6.74637 23.4446 6.99494 23.1981L5.58654 21.7781C4.95934 22.4002 4.60655 23.2469 4.60655 24.1303H6.60655ZM6.99494 25.0626C6.74637 24.816 6.60655 24.4804 6.60655 24.1303H4.60655C4.60655 25.0137 4.95934 25.8605 5.58654 26.4826L6.99494 25.0626ZM21.2693 39.3369L6.99785 25.0655L5.58363 26.4797L19.855 40.7511L21.2693 39.3369ZM22.2044 39.7282C21.8543 39.7282 21.5187 39.5884 21.2722 39.3398L19.8521 40.7482C20.4742 41.3754 21.321 41.7282 22.2044 41.7282V39.7282ZM23.1367 39.3398C22.8901 39.5884 22.5545 39.7282 22.2044 39.7282V41.7282C23.0878 41.7282 23.9346 41.3754 24.5567 40.7482L23.1367 39.3398ZM39.3308 23.1457L23.1395 39.3369L24.5538 40.7511L40.745 24.5599L39.3308 23.1457ZM25.5174 14.8782C25.5174 11.5981 28.1765 8.93911 31.4565 8.93911V6.93911C27.0719 6.93911 23.5174 10.4936 23.5174 14.8782H25.5174ZM31.4565 20.8173C28.1765 20.8173 25.5174 18.1583 25.5174 14.8782H23.5174C23.5174 19.2628 27.0719 22.8173 31.4565 22.8173V20.8173ZM37.3956 14.8782C37.3956 18.1583 34.7366 20.8173 31.4565 20.8173V22.8173C35.8412 22.8173 39.3956 19.2628 39.3956 14.8782H37.3956ZM31.4565 8.93911C34.7366 8.93911 37.3956 11.5981 37.3956 14.8782H39.3956C39.3956 10.4936 35.8412 6.93911 31.4565 6.93911V8.93911ZM31.4565 16.1912C30.7314 16.1912 30.1435 15.6034 30.1435 14.8782H28.1435C28.1435 16.7079 29.6268 18.1912 31.4565 18.1912V16.1912ZM32.7696 14.8782C32.7696 15.6034 32.1817 16.1912 31.4565 16.1912V18.1912C33.2863 18.1912 34.7696 16.7079 34.7696 14.8782H32.7696ZM31.4565 13.5652C32.1817 13.5652 32.7696 14.153 32.7696 14.8782H34.7696C34.7696 13.0484 33.2863 11.5652 31.4565 11.5652V13.5652ZM30.1435 14.8782C30.1435 14.153 30.7314 13.5652 31.4565 13.5652V11.5652C29.6268 11.5652 28.1435 13.0484 28.1435 14.8782H30.1435Z" fill="white"/>
</svg>
